<svg width="245" height="48" viewBox="0 0 245 48" fill="none" xmlns="http://www.w3.org/2000/svg">
<rect width="42.4528" height="42.4528" fill="#7000E3"/>
<path d="M42.4529 8.01572V12.6238H26.6073V42.4528H20.9586V12.6238H12.6456L5.41956 8.01572H42.4529Z" fill="white"/>
<path d="M61.9269 34.7118C61.9269 35.3091 61.8883 35.8487 61.8113 36.3304H49.6427C49.739 37.6022 50.2111 38.6234 51.059 39.3942C51.9068 40.165 52.9474 40.5504 54.1806 40.5504C55.9534 40.5504 57.2059 39.8085 57.9381 38.3248H61.4933C61.0116 39.7892 60.1348 40.9936 58.8631 41.9378C57.6105 42.8627 56.0497 43.3252 54.1806 43.3252C52.6583 43.3252 51.2902 42.988 50.0762 42.3135C48.8815 41.6198 47.9373 40.6564 47.2436 39.4231C46.5692 38.1706 46.232 36.7254 46.232 35.0875C46.232 33.4496 46.5596 32.0141 47.2147 30.7808C47.8892 29.5283 48.8237 28.5648 50.0184 27.8904C51.2324 27.216 52.6198 26.8788 54.1806 26.8788C55.6836 26.8788 57.0228 27.2063 58.1983 27.8615C59.3737 28.5167 60.289 29.4416 60.9441 30.6363C61.5993 31.8117 61.9269 33.1702 61.9269 34.7118ZM58.4873 33.6712C58.468 32.4572 58.0345 31.4841 57.1866 30.7519C56.3388 30.0197 55.2886 29.6536 54.0361 29.6536C52.8992 29.6536 51.9261 30.0197 51.1168 30.7519C50.3075 31.4649 49.8257 32.438 49.6716 33.6712H58.4873ZM64.0712 35.0297C64.0712 33.4303 64.3988 32.0141 65.0539 30.7808C65.7284 29.5476 66.634 28.5937 67.7709 27.9193C68.9271 27.2256 70.1989 26.8788 71.5863 26.8788C72.8388 26.8788 73.9275 27.1293 74.8524 27.6303C75.7966 28.112 76.5481 28.719 77.1069 29.4512V27.1389H80.4309V43.065H77.1069V40.6949C76.5481 41.4464 75.787 42.0727 74.8235 42.5737C73.86 43.0747 72.7617 43.3252 71.5285 43.3252C70.1603 43.3252 68.9078 42.9783 67.7709 42.2846C66.634 41.5717 65.7284 40.5889 65.0539 39.3364C64.3988 38.0646 64.0712 36.6291 64.0712 35.0297ZM77.1069 35.0875C77.1069 33.9892 76.8757 33.0353 76.4132 32.226C75.97 31.4167 75.3823 30.8001 74.6501 30.3762C73.9179 29.9522 73.1278 29.7403 72.28 29.7403C71.4321 29.7403 70.6421 29.9522 69.9098 30.3762C69.1776 30.7808 68.5802 31.3878 68.1178 32.1971C67.6746 32.9872 67.453 33.9314 67.453 35.0297C67.453 36.1281 67.6746 37.0915 68.1178 37.9201C68.5802 38.7487 69.1776 39.3846 69.9098 39.8278C70.6613 40.2517 71.4514 40.4637 72.28 40.4637C73.1278 40.4637 73.9179 40.2517 74.6501 39.8278C75.3823 39.4039 75.97 38.7872 76.4132 37.9779C76.8757 37.1493 77.1069 36.1859 77.1069 35.0875ZM83.6605 35.0875C83.6605 33.4496 83.9881 32.0141 84.6432 30.7808C85.3176 29.5283 86.2426 28.5648 87.418 27.8904C88.5934 27.216 89.9423 26.8788 91.4646 26.8788C93.3915 26.8788 94.9812 27.3412 96.2337 28.2662C97.5055 29.1718 98.363 30.4725 98.8062 32.1682H95.251C94.962 31.3782 94.4995 30.7615 93.8636 30.3183C93.2277 29.8752 92.428 29.6536 91.4646 29.6536C90.1157 29.6536 89.0366 30.1353 88.2273 31.0988C87.4373 32.043 87.0423 33.3725 87.0423 35.0875C87.0423 36.8025 87.4373 38.1417 88.2273 39.1052C89.0366 40.0686 90.1157 40.5504 91.4646 40.5504C93.3722 40.5504 94.6344 39.7122 95.251 38.0357H98.8062C98.3437 39.6544 97.4766 40.9454 96.2048 41.9089C94.9331 42.8531 93.353 43.3252 91.4646 43.3252C89.9423 43.3252 88.5934 42.988 87.418 42.3135C86.2426 41.6198 85.3176 40.6564 84.6432 39.4231C83.9881 38.1706 83.6605 36.7254 83.6605 35.0875ZM110.328 26.8788C111.542 26.8788 112.621 27.1389 113.565 27.6592C114.528 28.1794 115.28 28.9502 115.819 29.9715C116.378 30.9928 116.658 32.226 116.658 33.6712V43.065H113.391V34.1626C113.391 32.7367 113.035 31.6479 112.322 30.8964C111.609 30.1257 110.636 29.7403 109.403 29.7403C108.169 29.7403 107.187 30.1257 106.454 30.8964C105.742 31.6479 105.385 32.7367 105.385 34.1626V43.065H102.09V21.676H105.385V28.9888C105.944 28.3143 106.647 27.7941 107.495 27.4279C108.362 27.0618 109.306 26.8788 110.328 26.8788ZM127.271 32.9775C127.271 31.012 127.723 29.2489 128.629 27.6881C129.554 26.1273 130.797 24.9133 132.358 24.0462C133.938 23.1598 135.662 22.7166 137.532 22.7166C139.67 22.7166 141.568 23.2465 143.226 24.3063C144.902 25.3468 146.116 26.8306 146.868 28.7575H142.908C142.387 27.6977 141.665 26.9077 140.74 26.3874C139.815 25.8671 138.745 25.607 137.532 25.607C136.202 25.607 135.017 25.9057 133.976 26.503C132.936 27.1004 132.117 27.9578 131.519 29.0755C130.941 30.1931 130.652 31.4938 130.652 32.9775C130.652 34.4613 130.941 35.7619 131.519 36.8796C132.117 37.9972 132.936 38.8643 133.976 39.4809C135.017 40.0783 136.202 40.377 137.532 40.377C138.745 40.377 139.815 40.1168 140.74 39.5965C141.665 39.0763 142.387 38.2862 142.908 37.2264H146.868C146.116 39.1534 144.902 40.6371 143.226 41.6776C141.568 42.7182 139.67 43.2385 137.532 43.2385C135.643 43.2385 133.919 42.8049 132.358 41.9378C130.797 41.0514 129.554 39.8278 128.629 38.267C127.723 36.7061 127.271 34.943 127.271 32.9775ZM157.632 43.3252C156.129 43.3252 154.771 42.988 153.557 42.3135C152.343 41.6198 151.389 40.6564 150.696 39.4231C150.002 38.1706 149.655 36.7254 149.655 35.0875C149.655 33.4689 150.011 32.0333 150.724 30.7808C151.437 29.5283 152.41 28.5648 153.644 27.8904C154.877 27.216 156.255 26.8788 157.777 26.8788C159.299 26.8788 160.677 27.216 161.91 27.8904C163.144 28.5648 164.117 29.5283 164.83 30.7808C165.543 32.0333 165.899 33.4689 165.899 35.0875C165.899 36.7061 165.533 38.1417 164.801 39.3942C164.068 40.6467 163.066 41.6198 161.795 42.3135C160.542 42.988 159.155 43.3252 157.632 43.3252ZM157.632 40.4637C158.48 40.4637 159.27 40.2613 160.003 39.8567C160.754 39.452 161.361 38.845 161.824 38.0357C162.286 37.2264 162.517 36.2437 162.517 35.0875C162.517 33.9314 162.296 32.9582 161.852 32.1682C161.409 31.3589 160.822 30.7519 160.089 30.3472C159.357 29.9426 158.567 29.7403 157.719 29.7403C156.871 29.7403 156.081 29.9426 155.349 30.3472C154.636 30.7519 154.068 31.3589 153.644 32.1682C153.22 32.9582 153.008 33.9314 153.008 35.0875C153.008 36.8025 153.441 38.1321 154.309 39.0763C155.195 40.0012 156.303 40.4637 157.632 40.4637ZM177.192 26.8788C178.444 26.8788 179.562 27.1389 180.545 27.6592C181.547 28.1794 182.327 28.9502 182.886 29.9715C183.445 30.9928 183.724 32.226 183.724 33.6712V43.065H180.458V34.1626C180.458 32.7367 180.101 31.6479 179.388 30.8964C178.675 30.1257 177.702 29.7403 176.469 29.7403C175.236 29.7403 174.253 30.1257 173.521 30.8964C172.808 31.6479 172.451 32.7367 172.451 34.1626V43.065H169.156V27.1389H172.451V28.9599C172.991 28.3047 173.675 27.7941 174.504 27.4279C175.352 27.0618 176.248 26.8788 177.192 26.8788ZM191.771 29.827V38.6427C191.771 39.2401 191.906 39.6736 192.176 39.9434C192.465 40.1939 192.947 40.3191 193.621 40.3191H195.644V43.065H193.043C191.559 43.065 190.422 42.7182 189.632 42.0245C188.842 41.3308 188.447 40.2035 188.447 38.6427V29.827H186.569V27.1389H188.447V23.179H191.771V27.1389H195.644V29.827H191.771ZM213.278 34.7118C213.278 35.3091 213.239 35.8487 213.162 36.3304H200.994C201.09 37.6022 201.562 38.6234 202.41 39.3942C203.258 40.165 204.298 40.5504 205.532 40.5504C207.304 40.5504 208.557 39.8085 209.289 38.3248H212.844C212.363 39.7892 211.486 40.9936 210.214 41.9378C208.962 42.8627 207.401 43.3252 205.532 43.3252C204.009 43.3252 202.641 42.988 201.427 42.3135C200.233 41.6198 199.288 40.6564 198.595 39.4231C197.92 38.1706 197.583 36.7254 197.583 35.0875C197.583 33.4496 197.911 32.0141 198.566 30.7808C199.24 29.5283 200.175 28.5648 201.37 27.8904C202.583 27.216 203.971 26.8788 205.532 26.8788C207.035 26.8788 208.374 27.2063 209.549 27.8615C210.725 28.5167 211.64 29.4416 212.295 30.6363C212.95 31.8117 213.278 33.1702 213.278 34.7118ZM209.838 33.6712C209.819 32.4572 209.386 31.4841 208.538 30.7519C207.69 30.0197 206.64 29.6536 205.387 29.6536C204.25 29.6536 203.277 30.0197 202.468 30.7519C201.659 31.4649 201.177 32.438 201.023 33.6712H209.838ZM224.556 26.8788C225.808 26.8788 226.926 27.1389 227.909 27.6592C228.911 28.1794 229.691 28.9502 230.25 29.9715C230.809 30.9928 231.088 32.226 231.088 33.6712V43.065H227.822V34.1626C227.822 32.7367 227.466 31.6479 226.753 30.8964C226.04 30.1257 225.067 29.7403 223.833 29.7403C222.6 29.7403 221.617 30.1257 220.885 30.8964C220.172 31.6479 219.816 32.7367 219.816 34.1626V43.065H216.521V27.1389H219.816V28.9599C220.355 28.3047 221.039 27.7941 221.868 27.4279C222.716 27.0618 223.612 26.8788 224.556 26.8788ZM239.136 29.827V38.6427C239.136 39.2401 239.27 39.6736 239.54 39.9434C239.829 40.1939 240.311 40.3191 240.985 40.3191H243.009V43.065H240.407C238.924 43.065 237.787 42.7182 236.997 42.0245C236.207 41.3308 235.812 40.2035 235.812 38.6427V29.827H233.933V27.1389H235.812V23.179H239.136V27.1389H243.009V29.827H239.136Z" fill="#7000E3"/>
</svg>
